<svg xmlns="http://www.w3.org/2000/svg" width="293" height="58" viewBox="0 0 293 58" fill="none">
  <path d="M5.356,37.805c0.265-0.908,0.632-1.783,1.096-2.604l-1.323-1.669 c-0.432-0.546-0.383-1.324,0.103-1.815l2.279-2.28c0.492-0.492,1.269-0.535,1.815-0.103l1.658,1.313 c0.853-0.492,1.761-0.875,2.706-1.145l0.248-2.134c0.081-0.692,0.664-1.21,1.356-1.21h3.224c0.692,0,1.275,0.519,1.356,1.21 l0.238,2.058c1.015,0.265,1.988,0.659,2.9,1.172l1.604-1.27c0.546-0.432,1.323-0.384,1.815,0.103l2.279,2.28 c0.491,0.492,0.535,1.27,0.103,1.815l-1.248,1.583c0.519,0.897,0.924,1.853,1.194,2.852l1.923,0.221 c0.691,0.081,1.21,0.664,1.21,1.356v3.225c0,0.691-0.519,1.275-1.21,1.356l-1.896,0.222c-0.259,0.989-0.648,1.934-1.145,2.82 l1.167,1.475c0.432,0.546,0.384,1.324-0.103,1.815l-2.274,2.274c-0.492,0.492-1.269,0.535-1.815,0.103l-1.431-1.135 c-0.929,0.546-1.923,0.962-2.965,1.243l-0.216,1.853C19.923,55.481,19.34,56,18.648,56h-3.225c-0.691,0-1.275-0.519-1.356-1.21 l-0.216-1.853c-1.069-0.286-2.09-0.719-3.041-1.286l-1.485,1.178c-0.546,0.432-1.323,0.384-1.815-0.103l-2.279-2.28 c-0.492-0.492-0.535-1.27-0.103-1.815l1.242-1.572c-0.497-0.897-0.875-1.853-1.123-2.847L3.26,43.985 c-0.691-0.081-1.21-0.664-1.21-1.356v-3.225c0-0.691,0.519-1.275,1.21-1.356L5.356,37.805z M17.039,46.53 c2.938,0,5.331-2.393,5.331-5.332c0-2.939-2.393-5.332-5.331-5.332c-2.938,0-5.331,2.393-5.331,5.332 C11.707,44.137,14.1,46.53,17.039,46.53z" style="fill:#8463ff"/>
  <path d="M34.568,22.797c0.214-0.735,0.512-1.443,0.888-2.108l-1.071-1.351 c-0.35-0.442-0.31-1.072,0.083-1.469l1.845-1.846c0.398-0.398,1.028-0.433,1.469-0.083l1.342,1.063 c0.691-0.398,1.425-0.708,2.191-0.927l0.201-1.727c0.065-0.56,0.538-0.98,1.098-0.98h2.61c0.56,0,1.032,0.42,1.098,0.98 l0.192,1.666c0.822,0.214,1.609,0.534,2.348,0.949l1.299-1.028c0.441-0.35,1.071-0.311,1.469,0.083l1.845,1.845 c0.398,0.398,0.433,1.028,0.083,1.469l-1.01,1.281c0.42,0.726,0.748,1.5,0.966,2.309l1.557,0.179 c0.56,0.065,0.979,0.538,0.979,1.098v2.611c0,0.56-0.42,1.032-0.979,1.098l-1.535,0.179c-0.21,0.8-0.525,1.566-0.927,2.283 l0.944,1.194c0.35,0.442,0.311,1.072-0.083,1.469l-1.841,1.841c-0.398,0.398-1.028,0.433-1.469,0.083l-1.159-0.919 c-0.752,0.442-1.557,0.779-2.4,1.006l-0.175,1.5c-0.066,0.56-0.538,0.98-1.098,0.98h-2.61c-0.56,0-1.032-0.42-1.097-0.98 l-0.175-1.5c-0.866-0.232-1.692-0.582-2.462-1.041l-1.202,0.953c-0.441,0.35-1.071,0.311-1.469-0.083l-1.845-1.845 c-0.398-0.398-0.433-1.028-0.083-1.469l1.006-1.273c-0.402-0.726-0.708-1.5-0.91-2.305L32.872,27.8 c-0.56-0.066-0.979-0.538-0.979-1.098v-2.611c0-0.56,0.42-1.032,0.979-1.098L34.568,22.797z M44.026,29.86 c2.379,0,4.316-1.937,4.316-4.316c0-2.379-1.937-4.316-4.316-4.316c-2.379,0-4.316,1.937-4.316,4.316 C39.71,27.922,41.648,29.86,44.026,29.86z" style="fill:#8463ff"/>
  <path d="M14.199,9.765c0.176-0.605,0.421-1.189,0.731-1.736l-0.882-1.113 c-0.288-0.364-0.256-0.882,0.068-1.21l1.52-1.52c0.328-0.328,0.846-0.357,1.21-0.068l1.106,0.875 c0.569-0.328,1.174-0.583,1.804-0.764l0.166-1.423C19.975,2.346,20.364,2,20.825,2h2.15c0.461,0,0.85,0.346,0.904,0.807 l0.158,1.372c0.677,0.176,1.325,0.439,1.934,0.782l1.069-0.846c0.364-0.288,0.882-0.256,1.21,0.068l1.52,1.52 c0.328,0.328,0.357,0.846,0.068,1.21l-0.832,1.055c0.346,0.598,0.616,1.235,0.796,1.902l1.282,0.148 c0.461,0.054,0.806,0.443,0.806,0.904v2.15c0,0.461-0.346,0.85-0.806,0.904l-1.264,0.148c-0.173,0.659-0.432,1.289-0.763,1.88 l0.778,0.983c0.288,0.364,0.256,0.882-0.068,1.21l-1.516,1.516c-0.328,0.328-0.846,0.357-1.21,0.068l-0.954-0.756 c-0.619,0.364-1.282,0.641-1.977,0.828l-0.144,1.235c-0.054,0.461-0.443,0.807-0.904,0.807h-2.15c-0.461,0-0.85-0.346-0.904-0.807 l-0.144-1.235c-0.713-0.191-1.394-0.479-2.027-0.857l-0.99,0.785c-0.364,0.288-0.882,0.256-1.21-0.068l-1.52-1.52 c-0.328-0.328-0.356-0.846-0.068-1.21l0.828-1.048c-0.331-0.598-0.583-1.235-0.749-1.898l-1.325-0.151 c-0.461-0.054-0.807-0.443-0.807-0.904v-2.15c0-0.461,0.346-0.85,0.807-0.904L14.199,9.765z M21.988,15.581 c1.959,0,3.554-1.595,3.554-3.555c0-1.959-1.595-3.555-3.554-3.555c-1.959,0-3.554,1.595-3.554,3.555 C18.434,13.986,20.029,15.581,21.988,15.581z" style="fill:#8463ff"/>
  <path d="M284.404,25.884c-4.406,0-6.251-2.025-6.251-6.776c0-3.713,2.142-6.412,6.518-6.412 c0.714,0,2.618,0.078,2.618,0.078v-6.49c0.626-0.052,1.251-0.078,1.786-0.078c1.072,0,1.875,0.078,1.875,0.078V25.78 C290.95,25.78,287.409,25.884,284.404,25.884z M284.701,23.158h2.588v-7.607h-2.321c-2.113,0-3.065,1.584-3.065,3.557 C281.904,21.782,282.618,23.158,284.701,23.158z" style="fill:#8463ff"/>
  <path d="M275.806,12.775v12.993c0,0-2.055,0.169-5.864,0.169c-3.808,0-5.863-0.571-5.863-3.868v-9.294 c0.625-0.052,1.25-0.078,1.785-0.078c1.072,0,1.876,0.078,1.876,0.078v8.801c0,1.168,0.803,1.558,2.202,1.558 c1.4,0,2.203,0,2.203,0V12.775c0.625-0.052,1.22-0.078,1.755-0.078C274.971,12.697,275.806,12.775,275.806,12.775z" style="fill:#8463ff"/>
  <path d="M248.534,19.005c0-3.998,1.341-6.335,6.399-6.335c5.06,0,6.429,2.336,6.429,6.335 c0,4.491-1.963,6.932-6.429,6.932C250.469,25.937,248.534,23.497,248.534,19.005z M252.136,19.083c0,2.44,0.714,4.076,2.797,4.076 c2.084,0,2.828-1.506,2.828-3.972c0-2.414-0.744-3.712-2.828-3.712C252.85,15.475,252.136,16.643,252.136,19.083z" style="fill:#8463ff"/>
  <path d="M242.191,25.782V6.96l3.66-0.675v19.497c-0.595,0.052-1.25,0.078-1.786,0.078 C242.992,25.859,242.191,25.782,242.191,25.782z" style="fill:#8463ff"/>
  <path d="M212.261,12.697c2.142,0,3.839,0.078,3.839,0.078s0.089,0.623,0.089,1.454 c0,0.415-0.03,0.883-0.089,1.35h-3.988v10.203c0,0-0.833,0.078-1.905,0.078c-0.536,0-1.161-0.026-1.756-0.078V12.879 C208.451,12.879,209.94,12.697,212.261,12.697z" style="fill:#8463ff"/>
  <path d="M205.62,20.459h-9.107c0,1.973,1.428,2.726,3.483,2.726c2.5,0,4.166-0.701,4.166-0.701 c0.744,1.324,0.923,2.7,0.923,2.7s-1.847,0.779-5.09,0.779c-5.09,0-7.144-2.233-7.144-6.724c0-4.387,2.381-6.568,6.608-6.568 c3.958,0,6.279,2.44,6.279,6.257C205.739,19.862,205.62,20.459,205.62,20.459z M199.46,15.423c-2.025,0-2.858,1.064-2.886,2.57 h5.327v-0.389C201.901,16.591,201.245,15.423,199.46,15.423z" style="fill:#8463ff"/>
  <path d="M184.794,25.78V9.996l3.632-0.675v3.453h3.81c0.059,0.441,0.089,0.909,0.089,1.324 c0,0.831-0.089,1.48-0.089,1.48h-3.81V25.78c0,0-0.805,0.078-1.875,0.078C186.014,25.858,185.419,25.832,184.794,25.78z" style="fill:#8463ff"/>
  <path d="M176.255,12.671c3.333,0,5.03,1.246,5.03,1.246s-0.566,1.272-1.936,2.129 c0,0-1.249-0.727-3.094-0.727c-1.309,0-1.875,0.519-1.875,1.298c0,1.272,1.756,1.246,3.661,1.48 c1.905,0.234,3.808,1.298,3.808,3.661c0,2.882-1.963,4.18-6.19,4.18c-3.661,0-5.119-1.35-5.119-1.35s0.564-1.246,1.935-2.051 c0,0,1.369,0.753,3.185,0.753c1.755,0,2.649-0.493,2.649-1.428c0-1.428-1.905-1.376-3.869-1.558 c-1.844-0.182-3.63-1.22-3.63-3.583C170.809,13.865,172.653,12.671,176.255,12.671z" style="fill:#8463ff"/>
  <path d="M161.787,15.579h-1.845v10.203c0,0-0.803,0.078-1.875,0.078c-0.535,0-1.161-0.026-1.786-0.078 V12.879c0,0,2.53-0.182,5.507-0.182c4.732,0,6.219,1.454,6.219,5.504v7.581c0,0-0.803,0.078-1.875,0.078 c-0.535,0-1.16-0.026-1.786-0.078v-7.814C164.345,16.098,163.721,15.579,161.787,15.579z" style="fill:#8463ff"/>
  <path d="M140.739,19.005c0-3.998,1.339-6.335,6.4-6.335c5.058,0,6.429,2.336,6.429,6.335 c0,4.491-1.966,6.932-6.429,6.932C142.673,25.937,140.739,23.497,140.739,19.005z M144.341,19.083c0,2.44,0.714,4.076,2.799,4.076 c2.082,0,2.827-1.506,2.827-3.972c0-2.414-0.745-3.712-2.827-3.712C145.055,15.475,144.341,16.643,144.341,19.083z" style="fill:#8463ff"/>
  <path d="M127.509,14.176h0.119c0,0,0.089-0.441,2.708-4.595l2.083-3.297 c0.744-0.052,1.815-0.078,2.53-0.078c1.429,0,2.649,0.078,2.649,0.078V25.78c-0.655,0.052-1.28,0.078-1.845,0.078 c-1.131,0-1.994-0.078-1.994-0.078l0.06-15.473H133.7c0,0-0.357,1.168-2.887,4.959l-3.066,4.595h-0.357l-3.006-4.517 c-2.47-3.713-2.947-5.037-2.947-5.037h-0.119l0.059,15.473c0,0-0.863,0.078-1.994,0.078c-0.565,0-1.191-0.026-1.845-0.078V6.283 c0.774-0.052,1.726-0.078,2.441-0.078c1.429,0,2.738,0.078,2.738,0.078l2.351,3.687C127.39,13.63,127.509,14.176,127.509,14.176z" style="fill:#8463ff"/>
  <path d="M101.987,30.273V12.879c0,0,2.828-0.182,6.25-0.182c4.405,0,6.578,1.636,6.578,6.412 c0,3.972-2.173,6.698-7.143,6.698c-0.684,0-1.458-0.026-2.054-0.052v4.517c-0.565,0.052-1.161,0.078-1.696,0.078 C102.851,30.351,101.987,30.273,101.987,30.273z M105.618,15.579v7.581h2.054c2.679,0,3.393-1.843,3.393-4.05 c0-2.622-0.714-3.531-2.827-3.531H105.618z" style="fill:#8463ff"/>
  <path d="M91.888,25.885c-3.571,0-4.941-1.402-4.941-3.972c0-2.544,1.399-3.972,5.208-3.972h2.738v-0.675 c0-1.48-1.101-1.791-2.56-1.791c-1.964,0-3.929,0.519-3.929,0.519s-0.446-1.454-0.268-2.804c0,0,1.488-0.519,4.196-0.519 c4.137,0,6.22,1.116,6.22,4.439v8.671C98.555,25.781,95.162,25.885,91.888,25.885z M92.186,23.419 c1.191,0,2.708-0.078,2.708-0.078v-3.011l-2.441-0.026c-1.756-0.026-1.934,0.805-1.934,1.609 C90.519,22.744,90.787,23.419,92.186,23.419z" style="fill:#8463ff"/>
  <path d="M85.093,24.417c-1.236,1.039-3.426,1.585-5.672,1.585c-5.925,0-9.87-3.195-9.87-10.028 c0-6.832,3.945-9.924,9.87-9.924c2.246,0,4.437,0.546,5.672,1.585c-0.618,1.507-2.134,2.416-2.134,2.416s-1.432-0.961-3.538-0.961 c-3.117,0-6.107,1.819-6.107,6.884s2.99,6.988,6.107,6.988c2.078,0,3.538-0.961,3.538-0.961S84.475,22.91,85.093,24.417z" style="fill:#8463ff"/>
  <path d="M240.299,24.417c-1.235,1.039-3.425,1.585-5.673,1.585c-5.924,0-9.87-3.195-9.87-10.028 c0-6.832,3.946-9.924,9.87-9.924c2.248,0,4.437,0.546,5.673,1.585c-0.618,1.507-2.133,2.416-2.133,2.416s-1.434-0.961-3.54-0.961 c-3.116,0-6.106,1.819-6.106,6.884s2.99,6.988,6.106,6.988c2.079,0,3.54-0.961,3.54-0.961S239.681,22.91,240.299,24.417z" style="fill:#8463ff"/>
  <path d="M236.57,43.542v8.217h-2.473V41.433h2.342L236.57,43.542z M239.651,41.366l-0.038,2.348 c-0.136-0.026-0.293-0.045-0.468-0.057c-0.167-0.013-0.327-0.019-0.477-0.019c-0.381,0-0.715,0.054-1.003,0.162 c-0.286,0.102-0.527,0.251-0.721,0.449c-0.186,0.197-0.331,0.439-0.431,0.725c-0.1,0.28-0.155,0.598-0.169,0.954l-0.533-0.067 c0-0.655,0.065-1.263,0.197-1.823c0.131-0.56,0.321-1.05,0.571-1.47c0.25-0.42,0.562-0.745,0.936-0.973 c0.382-0.235,0.818-0.353,1.312-0.353c0.136,0,0.284,0.013,0.44,0.038C239.43,41.299,239.558,41.328,239.651,41.366z" style="fill:#878c96"/>
  <path d="M228.329,51.95c-0.767,0-1.457-0.127-2.07-0.382c-0.612-0.254-1.133-0.608-1.563-1.059 c-0.425-0.458-0.752-0.989-0.983-1.594c-0.225-0.611-0.338-1.266-0.338-1.966v-0.382c0-0.795,0.112-1.517,0.338-2.166 c0.224-0.655,0.543-1.218,0.954-1.689c0.412-0.471,0.906-0.833,1.48-1.088c0.575-0.254,1.208-0.382,1.901-0.382 c0.718,0,1.353,0.124,1.901,0.372c0.549,0.242,1.008,0.585,1.377,1.031c0.369,0.445,0.647,0.98,0.834,1.603 c0.186,0.617,0.281,1.301,0.281,2.052v1.059h-7.942v-1.737h5.507v-0.191c-0.012-0.401-0.088-0.767-0.224-1.098 c-0.138-0.337-0.35-0.604-0.637-0.802c-0.288-0.204-0.659-0.305-1.115-0.305c-0.367,0-0.69,0.083-0.964,0.248 c-0.269,0.159-0.493,0.388-0.675,0.687c-0.174,0.293-0.305,0.643-0.393,1.05s-0.131,0.859-0.131,1.355v0.382 c0,0.433,0.057,0.833,0.169,1.203c0.119,0.369,0.29,0.69,0.514,0.964c0.232,0.267,0.506,0.477,0.825,0.63 c0.324,0.146,0.693,0.22,1.104,0.22c0.518,0,0.987-0.102,1.405-0.306c0.424-0.21,0.792-0.519,1.104-0.926l1.246,1.317 c-0.212,0.318-0.499,0.623-0.861,0.916c-0.356,0.293-0.787,0.531-1.292,0.716C229.575,51.861,228.992,51.95,228.329,51.95z" style="fill:#878c96"/>
  <path d="M217.664,49.851l2.36-8.418h2.584l-3.474,10.326h-1.574L217.664,49.851z M215.94,41.433 l2.388,8.437l0.084,1.89h-1.582l-3.483-10.326H215.94z" style="fill:#878c96"/>
  <path d="M211.941,37.1v14.659h-2.481V37.1H211.941z" style="fill:#878c96"/>
  <path d="M198.016,46.701v-0.2c0-0.757,0.107-1.454,0.319-2.09c0.212-0.643,0.521-1.199,0.927-1.67 c0.405-0.471,0.902-0.837,1.488-1.098c0.587-0.267,1.255-0.401,2.005-0.401c0.761,0,1.436,0.134,2.022,0.401 c0.594,0.261,1.094,0.627,1.498,1.098c0.406,0.471,0.716,1.028,0.927,1.67c0.212,0.636,0.319,1.333,0.319,2.09v0.2 c0,0.751-0.107,1.447-0.319,2.09c-0.212,0.636-0.521,1.193-0.927,1.67c-0.405,0.471-0.902,0.837-1.489,1.097 c-0.586,0.261-1.258,0.391-2.013,0.391c-0.749,0-1.42-0.13-2.014-0.391c-0.593-0.261-1.092-0.627-1.497-1.097 c-0.406-0.477-0.715-1.034-0.927-1.67C198.122,48.149,198.016,47.452,198.016,46.701z M200.487,46.501v0.2 c0,0.452,0.045,0.875,0.131,1.269c0.088,0.395,0.223,0.741,0.404,1.04s0.414,0.534,0.702,0.706 c0.293,0.166,0.643,0.248,1.049,0.248c0.4,0,0.743-0.083,1.03-0.248c0.288-0.172,0.521-0.407,0.702-0.706 c0.188-0.299,0.325-0.646,0.412-1.04c0.088-0.394,0.131-0.818,0.131-1.269v-0.2c0-0.445-0.043-0.862-0.131-1.25 c-0.086-0.394-0.224-0.741-0.412-1.04c-0.181-0.305-0.418-0.544-0.711-0.716c-0.288-0.178-0.633-0.267-1.039-0.267 c-0.4,0-0.743,0.089-1.03,0.267c-0.288,0.172-0.521,0.41-0.702,0.716c-0.181,0.299-0.316,0.646-0.404,1.04 C200.532,45.639,200.487,46.055,200.487,46.501z" style="fill:#878c96"/>
  <path d="M194.074,48.152c0-0.267-0.04-0.506-0.123-0.716c-0.074-0.216-0.215-0.41-0.421-0.582 c-0.2-0.178-0.483-0.35-0.852-0.515c-0.362-0.172-0.83-0.35-1.404-0.534c-0.637-0.204-1.23-0.433-1.779-0.687 c-0.549-0.254-1.034-0.55-1.453-0.887c-0.412-0.337-0.733-0.725-0.964-1.164c-0.231-0.445-0.347-0.961-0.347-1.546 c0-0.573,0.119-1.094,0.356-1.565c0.243-0.471,0.586-0.875,1.03-1.212c0.443-0.344,0.964-0.608,1.563-0.792 c0.606-0.185,1.274-0.277,2.005-0.277c1.011,0,1.885,0.188,2.622,0.563c0.743,0.375,1.318,0.884,1.723,1.527 c0.406,0.643,0.609,1.365,0.609,2.166h-2.565c0-0.433-0.09-0.814-0.273-1.145c-0.174-0.331-0.443-0.592-0.805-0.783 c-0.356-0.191-0.806-0.286-1.349-0.286c-0.524,0-0.961,0.08-1.311,0.239c-0.343,0.159-0.602,0.375-0.778,0.649 c-0.169,0.274-0.252,0.579-0.252,0.916c0,0.254,0.059,0.483,0.178,0.687c0.117,0.197,0.296,0.385,0.533,0.563 c0.238,0.172,0.531,0.334,0.88,0.487c0.356,0.146,0.768,0.293,1.237,0.439c0.749,0.229,1.404,0.484,1.966,0.763 c0.568,0.28,1.04,0.598,1.415,0.954c0.381,0.356,0.664,0.757,0.852,1.202c0.194,0.445,0.29,0.951,0.29,1.518 c0,0.598-0.115,1.133-0.346,1.603c-0.232,0.471-0.563,0.872-0.994,1.203c-0.431,0.331-0.949,0.582-1.554,0.754 c-0.599,0.172-1.27,0.258-2.014,0.258c-0.662,0-1.316-0.089-1.966-0.267c-0.644-0.185-1.227-0.458-1.752-0.821 c-0.524-0.369-0.942-0.833-1.254-1.393c-0.312-0.566-0.468-1.228-0.468-1.985h2.585c0,0.439,0.068,0.814,0.205,1.126 c0.144,0.306,0.344,0.557,0.599,0.754c0.262,0.191,0.568,0.331,0.918,0.42c0.35,0.089,0.728,0.134,1.133,0.134 c0.525,0,0.956-0.073,1.293-0.22c0.343-0.153,0.599-0.363,0.767-0.63C193.986,48.801,194.074,48.495,194.074,48.152z" style="fill:#878c96"/>
  <path d="M174.773,39.973l-3.887,11.787h-2.726l5.095-13.896h1.742L174.773,39.973z M178.022,51.759 l-3.906-11.787l-0.234-2.109h1.751l5.122,13.896H178.022z M177.844,46.596v2.071h-7.314v-2.071H177.844z" style="fill:#878c96"/>
  <path d="M164.649,43.6v2.061h-7.173V43.6H164.649z M158.178,37.864v13.896h-2.576V37.864H158.178z M166.559,37.864v13.896h-2.574V37.864H166.559z" style="fill:#878c96"/>
  <path d="M151.033,47.188h2.576c-0.069,0.929-0.321,1.753-0.759,2.472c-0.437,0.713-1.046,1.272-1.827,1.68 c-0.78,0.407-1.727,0.611-2.838,0.611c-0.855,0-1.625-0.153-2.313-0.458c-0.68-0.312-1.265-0.754-1.751-1.327 c-0.481-0.579-0.849-1.272-1.106-2.08c-0.255-0.814-0.383-1.727-0.383-2.739v-1.059c0-1.012,0.131-1.925,0.393-2.739 c0.262-0.814,0.637-1.508,1.125-2.081c0.493-0.579,1.083-1.024,1.77-1.336c0.693-0.312,1.466-0.468,2.322-0.468 c1.111,0,2.051,0.21,2.819,0.63c0.768,0.414,1.364,0.983,1.789,1.708c0.424,0.725,0.68,1.559,0.768,2.5h-2.576 c-0.05-0.585-0.174-1.082-0.374-1.489c-0.194-0.407-0.487-0.716-0.882-0.926c-0.386-0.216-0.902-0.324-1.544-0.324 c-0.499,0-0.94,0.095-1.32,0.286c-0.375,0.191-0.687,0.477-0.937,0.859c-0.25,0.375-0.437,0.846-0.562,1.413 c-0.126,0.56-0.188,1.209-0.188,1.947v1.079c0,0.706,0.057,1.339,0.169,1.899c0.112,0.56,0.288,1.034,0.525,1.422 c0.236,0.388,0.543,0.684,0.917,0.888c0.375,0.204,0.821,0.305,1.339,0.305c0.63,0,1.143-0.102,1.536-0.305 c0.4-0.204,0.702-0.503,0.909-0.897C150.842,48.263,150.976,47.773,151.033,47.188z" style="fill:#878c96"/>
  <path d="M137.369,37.864v13.896h-2.566V37.864H137.369z M141.603,37.864v2.071h-10.985v-2.071H141.603z" style="fill:#878c96"/>
  <path d="M124.456,46.692h-3.512V44.63h3.512c0.574,0,1.039-0.095,1.395-0.286 c0.362-0.197,0.627-0.465,0.796-0.802c0.169-0.344,0.253-0.735,0.253-1.174c0-0.426-0.084-0.824-0.253-1.193 c-0.169-0.369-0.434-0.668-0.796-0.897c-0.356-0.229-0.821-0.344-1.395-0.344h-2.669v11.825h-2.575V37.864h5.244 c1.061,0,1.967,0.194,2.716,0.582c0.755,0.382,1.33,0.913,1.723,1.594c0.4,0.674,0.599,1.444,0.599,2.31 c0,0.897-0.2,1.67-0.599,2.319c-0.393,0.649-0.968,1.148-1.723,1.498C126.422,46.517,125.517,46.692,124.456,46.692z" style="fill:#878c96"/>
  <path d="M111.823,39.973l-3.886,11.787h-2.725l5.094-13.896h1.742L111.823,39.973z M115.072,51.759 l-3.905-11.787l-0.234-2.109h1.751l5.123,13.896H115.072z M114.894,46.596v2.071h-7.314v-2.071H114.894z" style="fill:#878c96"/>
  <path d="M101.83,47.188h2.575c-0.069,0.929-0.321,1.753-0.758,2.472c-0.437,0.713-1.046,1.272-1.826,1.68 c-0.78,0.407-1.726,0.611-2.838,0.611c-0.855,0-1.626-0.153-2.313-0.458c-0.681-0.312-1.264-0.754-1.751-1.327 c-0.481-0.579-0.849-1.272-1.105-2.08c-0.256-0.814-0.384-1.727-0.384-2.739v-1.059c0-1.012,0.131-1.925,0.393-2.739 c0.262-0.814,0.637-1.508,1.124-2.081c0.493-0.579,1.083-1.024,1.77-1.336c0.693-0.312,1.467-0.468,2.323-0.468 c1.111,0,2.051,0.21,2.819,0.63c0.768,0.414,1.364,0.983,1.789,1.708c0.424,0.725,0.68,1.559,0.768,2.5h-2.575 c-0.05-0.585-0.175-1.082-0.375-1.489c-0.194-0.407-0.487-0.716-0.88-0.926c-0.387-0.216-0.902-0.324-1.545-0.324 c-0.5,0-0.94,0.095-1.32,0.286c-0.375,0.191-0.687,0.477-0.937,0.859c-0.25,0.375-0.437,0.846-0.562,1.413 c-0.125,0.56-0.187,1.209-0.187,1.947v1.079c0,0.706,0.056,1.339,0.168,1.899c0.112,0.56,0.287,1.034,0.524,1.422 c0.237,0.388,0.543,0.684,0.918,0.888c0.375,0.204,0.821,0.305,1.339,0.305c0.631,0,1.143-0.102,1.536-0.305 c0.399-0.204,0.702-0.503,0.908-0.897C101.64,48.263,101.774,47.773,101.83,47.188z" style="fill:#878c96"/>
  <path d="M86.294,37.864v13.896h-2.575V37.864H86.294z" style="fill:#878c96"/>
  <path d="M76.162,39.973l-3.886,11.787H69.55l5.094-13.896h1.742L76.162,39.973z M79.411,51.759 l-3.905-11.787l-0.234-2.109h1.751l5.122,13.896H79.411z M79.233,46.596v2.071H71.92v-2.071H79.233z" style="fill:#878c96"/>
</svg>
